<svg width="36" height="30" viewBox="0 0 36 30" fill="none" xmlns="http://www.w3.org/2000/svg">
<path d="M18 27.8631V5.34176M18 27.8631C18 27.9647 18.1356 28.0308 18.2508 27.9854L21.1433 26.8442C24.2007 25.6381 27.7993 25.6381 30.8567 26.8442C32.3008 27.414 34 26.5854 34 25.3114V5.34176C34 4.75741 33.6513 4.20715 33.0588 3.85654C28.8758 1.38115 23.1242 1.38115 18.9412 3.85654C18.3487 4.20715 18 4.75741 18 5.34176M18 27.8631C18 27.9647 17.8644 28.0308 17.7492 27.9854L14.8567 26.8442C11.7993 25.6381 8.20067 25.6381 5.14331 26.8442C3.69916 27.414 2 26.5854 2 25.3114V5.34176C2 4.75741 2.34869 4.20715 2.94118 3.85654C7.12418 1.38115 12.8758 1.38115 17.0588 3.85654C17.6513 4.20715 18 4.75741 18 5.34176" stroke="#F5F5F0" stroke-width="3" stroke-linecap="round"/>
</svg>
