<svg width="36" height="35" viewBox="0 0 36 35" fill="none" xmlns="http://www.w3.org/2000/svg">
<path d="M12.6667 7.47077C12.8964 7.47059 13.1334 7.47059 13.3778 7.47059H22.6222C22.8666 7.47059 23.1036 7.47059 23.3333 7.47077M12.6667 7.47077C9.15253 7.47358 7.31053 7.51938 5.88273 8.2656C4.54469 8.96491 3.45683 10.0808 2.77506 11.4532C2 13.0135 2 15.0561 2 19.1412V21.3294C2 25.4145 2 27.457 2.77506 29.0173C3.45683 30.3898 4.54469 31.5057 5.88273 32.205C7.40388 33 9.39518 33 13.3778 33H22.6222C26.6048 33 28.5961 33 30.1173 32.205C31.4553 31.5057 32.5432 30.3898 33.2249 29.0173C34 27.457 34 25.4145 34 21.3294V19.1412C34 15.0561 34 13.0135 33.2249 11.4532C32.5432 10.0808 31.4553 8.96491 30.1173 8.2656C28.6895 7.51938 26.8475 7.47358 23.3333 7.47077M12.6667 7.47077V5.64706C12.6667 3.63284 14.2585 2 16.2222 2H19.7778C21.7415 2 23.3333 3.63284 23.3333 5.64706V7.47077M23.3333 20.2353C23.3333 23.2566 20.9455 25.7059 18 25.7059C15.0545 25.7059 12.6667 23.2566 12.6667 20.2353C12.6667 17.214 15.0545 14.7647 18 14.7647C20.9455 14.7647 23.3333 17.214 23.3333 20.2353Z" stroke="#3E156D" stroke-width="3" stroke-linecap="round"/>
</svg>
