<svg width="276" height="292" viewBox="0 0 276 292" fill="none" xmlns="http://www.w3.org/2000/svg">
<g clip-path="url(#clip0_509_914)">
<path d="M249.998 161.564V206.004V227.714C249.998 229.626 250.907 235.361 248.044 236.062C247.157 236.174 246.259 235.972 245.523 235.497C244.788 235.021 244.268 234.306 244.067 233.492C243.476 231.368 244.862 228.988 245.749 227.119C246.817 224.995 243.476 223.104 242.317 225.228C241.248 227.113 240.761 229.239 240.909 231.368C240.909 233.662 241.499 236.423 240.022 238.463C238.545 240.502 235.001 239.822 233.478 237.825C231.615 235.361 232.569 231.92 233.205 229.328H229.32C230.342 232.09 232.024 236.041 229.752 238.633C227.911 240.757 224.389 241.097 223.389 238.102C222.253 234.703 223.048 230.072 223.048 226.546C223.048 218.325 223.048 210.125 223.048 201.904C222.996 201.445 222.764 201.021 222.397 200.713C222.03 200.404 221.554 200.234 221.06 200.234C220.567 200.234 220.091 200.404 219.723 200.713C219.356 201.021 219.124 201.445 219.072 201.904C219.072 212.639 219.072 223.359 219.072 234.065C218.772 236.714 219.419 239.381 220.912 241.649C221.747 242.608 222.861 243.319 224.12 243.696C225.378 244.073 226.727 244.1 228.002 243.773C229.329 243.482 230.567 242.912 231.622 242.106C232.678 241.3 233.522 240.279 234.092 239.121C235.705 235.595 234.478 231.729 233.205 228.287C232.592 226.673 229.82 226.376 229.365 228.287C228.525 231.814 227.684 235.85 229.661 239.185C230.452 240.518 231.607 241.631 233.008 242.411C234.409 243.191 236.006 243.61 237.636 243.625C239.169 243.545 240.638 243.021 241.839 242.127C243.04 241.233 243.914 240.011 244.34 238.633C245.658 234.958 243.772 230.688 245.794 227.289L242.363 225.398C240.795 228.5 239.045 232.239 240.704 235.616C241.32 236.974 242.379 238.116 243.729 238.878C245.08 239.641 246.653 239.986 248.225 239.865C249.698 239.581 251.029 238.85 252.011 237.786C252.993 236.722 253.572 235.384 253.656 233.98C254.031 229.642 254.1 225.285 253.861 220.937V161.67C253.808 161.212 253.576 160.787 253.209 160.479C252.842 160.171 252.366 160 251.872 160C251.379 160 250.903 160.171 250.536 160.479C250.169 160.787 249.937 161.212 249.884 161.67L249.998 161.564Z" fill="#3E156D"/>
<path d="M229.381 88.9427C239.262 96.4151 246.147 107.172 248.795 119.273C249.832 123.88 250.776 127.956 250.776 128.002C260.932 182.169 236.613 220.376 182.424 230.625C128.236 240.873 77.9389 211.463 67.6907 157.204L61.4267 126.367C60.7258 122.688 61.0652 118.887 62.4065 115.39C63.7479 111.894 66.0381 108.841 69.0196 106.575C72.001 104.308 75.5556 102.919 79.2835 102.563C83.0113 102.206 86.7647 102.897 90.1215 104.557C90.7918 104.884 91.5401 105.017 92.282 104.942C93.024 104.867 93.7303 104.586 94.3214 104.132C94.9125 103.677 95.365 103.066 95.6279 102.368C95.8909 101.671 95.9539 100.913 95.8098 100.181C94.9507 95.6109 95.7006 90.8839 97.9322 86.8038C100.164 82.7237 103.739 79.5422 108.051 77.8C112.363 76.0579 117.145 75.8626 121.584 77.2474C126.024 78.6321 129.847 81.5115 132.404 85.396C133.795 87.4943 134.772 89.8395 135.283 92.3051L133.555 83.2082C133.555 82.9779 133.555 82.7706 133.555 82.5633C132.703 77.3788 133.912 72.0667 136.924 67.7616C139.936 63.4564 144.511 60.4995 149.673 59.5224C154.836 58.5452 160.175 59.6253 164.552 62.5319C168.929 65.4385 171.995 69.9413 173.097 75.0785C173.097 75.3088 173.097 75.5161 173.235 75.7233L162.964 23.8823C162.964 23.652 162.964 23.4678 162.849 23.2375C162.023 18.0631 163.248 12.7706 166.262 8.48477C169.277 4.19897 173.844 1.25773 178.993 0.286097C184.142 -0.685532 189.467 0.389053 193.836 3.28149C198.205 6.17392 201.274 10.6562 202.391 15.7757C202.448 15.9804 202.494 16.188 202.529 16.3975L215.449 83.6688C220.054 83.2542 224.891 85.6033 229.381 88.9427Z" fill="#FAB827"/>
<path d="M144.61 158.171C144.589 158.081 144.589 157.986 144.61 157.895L144.31 158.586V158.402L144.057 158.908L144.264 158.724L143.688 159.162C143.765 159.102 143.85 159.056 143.942 159.024L143.274 159.3H143.642H142.882H143.389H142.629C142.796 159.325 142.958 159.371 143.113 159.438L142.445 159.162L142.79 159.346L142.168 158.908C142.263 158.973 142.349 159.05 142.422 159.139L141.961 158.563C142.022 158.634 142.076 158.711 142.122 158.793L141.754 158.102C141.764 158.194 141.764 158.287 141.754 158.379V157.619C141.777 157.741 141.777 157.865 141.754 157.987V157.204C141.775 157.318 141.775 157.435 141.754 157.55L142.053 156.859C142.007 156.986 141.937 157.103 141.846 157.204L142.307 156.628C142.203 156.747 142.087 156.856 141.961 156.951L142.537 156.513L142.076 156.767L142.767 156.49C142.589 156.558 142.403 156.604 142.214 156.628H142.974C142.791 156.651 142.605 156.651 142.422 156.628H143.205C143.037 156.607 142.874 156.56 142.721 156.49L143.412 156.79L143.136 156.605L143.711 157.043C143.572 156.938 143.448 156.814 143.343 156.675L143.803 157.273L143.55 156.836L143.85 157.527C143.754 157.323 143.691 157.105 143.665 156.882L143.78 157.642C143.734 157.406 143.734 157.164 143.78 156.928L143.665 157.711C143.713 157.452 143.782 157.198 143.873 156.951L143.573 157.642C143.666 157.437 143.782 157.244 143.919 157.066L143.481 157.642L143.734 157.365C144.263 156.823 144.56 156.096 144.563 155.339C144.583 154.949 144.504 154.561 144.333 154.21C144.2 153.865 143.996 153.551 143.734 153.289C143.466 153.021 143.146 152.809 142.794 152.666C142.442 152.524 142.065 152.454 141.685 152.46C140.929 152.473 140.206 152.769 139.658 153.289C139.562 153.378 139.477 153.479 139.405 153.588C139.157 153.855 138.941 154.148 138.76 154.464C138.591 154.775 138.445 155.098 138.322 155.431L138.184 155.822C138.065 156.313 138.003 156.815 138 157.319C137.976 157.557 137.976 157.796 138 158.033C138.016 158.29 138.054 158.544 138.115 158.793C138.115 159.116 138.368 159.438 138.507 159.761L138.714 160.106C139.102 160.697 139.603 161.206 140.188 161.603L140.487 161.764C140.796 161.921 141.12 162.044 141.454 162.133C141.796 162.209 142.142 162.263 142.491 162.294H142.836C143.315 162.29 143.791 162.204 144.241 162.041C144.556 161.93 144.864 161.799 145.162 161.649C145.465 161.468 145.75 161.26 146.014 161.027C146.353 160.739 146.641 160.397 146.866 160.014C147.125 159.642 147.297 159.217 147.373 158.77C147.546 158.09 147.546 157.378 147.373 156.698C147.373 156.698 147.373 156.698 147.373 156.582C147.29 156.32 147.182 156.065 147.051 155.822C146.893 155.531 146.7 155.26 146.475 155.016C146.408 154.961 146.346 154.899 146.291 154.832C146.045 154.62 145.783 154.428 145.508 154.256C145.142 154.039 144.746 153.876 144.333 153.773C143.992 153.695 143.646 153.641 143.297 153.611H142.997C142.649 153.635 142.303 153.681 141.961 153.75C141.634 153.838 141.317 153.962 141.017 154.118C140.935 154.156 140.858 154.202 140.787 154.256C140.541 154.412 140.31 154.59 140.096 154.786C139.622 155.272 139.288 155.877 139.128 156.536C139.037 156.915 139.037 157.31 139.128 157.688C139.12 158.117 139.232 158.54 139.451 158.908C139.633 159.229 139.885 159.504 140.188 159.715C140.472 159.962 140.812 160.136 141.178 160.221C141.562 160.335 141.965 160.368 142.361 160.316C142.758 160.265 143.14 160.13 143.481 159.922L144.057 159.484C144.416 159.135 144.678 158.699 144.817 158.218L144.61 158.171Z" fill="#3E156D"/>
<path d="M191.981 151.378C191.961 151.287 191.961 151.192 191.981 151.101L191.682 151.792L191.797 151.608L191.36 152.184C191.409 152.111 191.471 152.049 191.544 151.999L190.968 152.437C191.05 152.373 191.144 152.326 191.244 152.299L190.554 152.575H190.922L190.162 152.69C190.33 152.667 190.501 152.667 190.669 152.69L189.909 152.575C190.083 152.599 190.253 152.646 190.415 152.713L189.724 152.437L190.07 152.621L189.563 151.999C189.646 152.07 189.723 152.147 189.794 152.23L189.333 151.654C189.394 151.725 189.448 151.802 189.494 151.884L189.195 151.216C189.205 151.308 189.205 151.401 189.195 151.493V150.733C189.218 150.854 189.218 150.979 189.195 151.101V150.318C189.216 150.432 189.216 150.549 189.195 150.664L189.494 149.973C189.448 150.1 189.377 150.217 189.287 150.318L189.747 149.742C189.65 149.867 189.533 149.976 189.402 150.065L189.978 149.627L189.517 149.881L190.116 149.696C189.938 149.764 189.752 149.81 189.563 149.834H190.323C190.14 149.857 189.954 149.857 189.771 149.834H190.554C190.403 149.806 190.256 149.76 190.116 149.696L190.807 149.996L190.484 149.811L191.06 150.249C190.922 150.15 190.805 150.025 190.715 149.881L191.152 150.479C191.054 150.342 190.97 150.195 190.899 150.042L191.198 150.733C191.113 150.525 191.051 150.309 191.014 150.088V150.848C190.979 150.611 190.979 150.371 191.014 150.134V150.917C191.061 150.658 191.131 150.404 191.221 150.157L190.945 150.848C191.021 150.64 191.13 150.445 191.267 150.272L190.83 150.848L191.083 150.571C191.612 150.029 191.909 149.302 191.912 148.545C191.932 148.155 191.853 147.767 191.682 147.416C191.56 147.065 191.354 146.749 191.083 146.495C190.815 146.227 190.495 146.015 190.143 145.872C189.791 145.73 189.413 145.66 189.034 145.666C188.279 145.683 187.557 145.978 187.007 146.495C186.911 146.584 186.825 146.685 186.754 146.795C186.506 147.061 186.29 147.354 186.109 147.67C185.94 147.981 185.793 148.304 185.671 148.637L185.533 149.028C185.414 149.519 185.352 150.021 185.349 150.525C185.337 150.763 185.337 151.002 185.349 151.239C185.38 151.497 185.434 151.751 185.51 151.999C185.629 152.33 185.767 152.653 185.925 152.967C185.977 153.086 186.039 153.202 186.109 153.312C186.497 153.903 186.998 154.412 187.583 154.809L187.882 154.97C188.191 155.127 188.515 155.25 188.849 155.339C189.191 155.415 189.537 155.469 189.886 155.5H190.231C190.71 155.496 191.185 155.41 191.636 155.247C191.953 155.14 192.261 155.009 192.557 154.855C192.859 154.674 193.145 154.466 193.409 154.233C193.748 153.945 194.036 153.603 194.261 153.22C194.5 152.851 194.657 152.434 194.722 151.999C194.894 151.319 194.894 150.607 194.722 149.927C194.638 149.664 194.53 149.409 194.399 149.167C194.242 148.875 194.049 148.604 193.824 148.361L193.64 148.176C193.41 147.894 193.155 147.632 192.88 147.393C192.514 147.176 192.118 147.013 191.705 146.91C191.364 146.832 191.017 146.778 190.669 146.748H190.369C190.021 146.772 189.675 146.818 189.333 146.887C189.006 146.975 188.689 147.099 188.389 147.255C188.307 147.293 188.23 147.339 188.158 147.393C187.913 147.549 187.682 147.727 187.468 147.923C187 148.41 186.674 149.015 186.523 149.673C186.426 150.051 186.426 150.447 186.523 150.825C186.546 151.209 186.665 151.581 186.869 151.907C187.051 152.228 187.303 152.503 187.606 152.713C187.889 152.961 188.229 153.135 188.596 153.22C188.979 153.334 189.383 153.367 189.779 153.315C190.176 153.263 190.557 153.129 190.899 152.921L191.475 152.483C191.834 152.134 192.096 151.697 192.235 151.216L191.981 151.378Z" fill="#3E156D"/>
<path d="M156.562 175.628C161.705 177.237 167.178 177.485 172.446 176.346C177.713 175.208 182.595 172.723 186.615 169.134C186.883 168.866 187.095 168.548 187.24 168.199C187.385 167.849 187.46 167.474 187.46 167.096C187.46 166.717 187.385 166.342 187.24 165.993C187.095 165.643 186.883 165.325 186.615 165.057C186.348 164.79 186.03 164.578 185.68 164.433C185.331 164.288 184.956 164.213 184.577 164.213C184.199 164.213 183.824 164.288 183.474 164.433C183.125 164.578 182.807 164.79 182.539 165.057C179.243 167.935 175.258 169.91 170.972 170.79C166.686 171.67 162.245 171.425 158.082 170.078C154.558 168.927 153.038 174.5 156.562 175.628Z" fill="#3E156D"/>
<path d="M64.812 139.955C65.6134 142.436 66.8958 144.735 68.5858 146.721C70.2759 148.707 72.3405 150.341 74.6618 151.529C76.9831 152.717 79.5157 153.436 82.115 153.645C84.7142 153.854 87.3292 153.549 89.8106 152.748C92.2921 151.946 94.5913 150.664 96.5772 148.974C98.563 147.284 100.197 145.219 101.384 142.898C102.572 140.576 103.291 138.044 103.501 135.444C103.71 132.845 103.405 130.23 102.604 127.749L97.9976 111.466" stroke="#3E156D" stroke-width="5.5" stroke-linecap="round" stroke-linejoin="round"/>
<path d="M103.548 128.048C106.91 138.481 119.254 144.169 129.686 140.784C132.168 139.984 134.467 138.703 136.453 137.014C138.438 135.325 140.071 133.261 141.259 130.94C142.446 128.619 143.164 126.087 143.371 123.488C143.579 120.89 143.272 118.276 142.468 115.796L135.283 92.236" stroke="#3E156D" stroke-width="5.5" stroke-linecap="round" stroke-linejoin="round"/>
<path d="M146.774 123.649C150.16 134.082 162.48 139.77 172.913 136.385C176.166 135.339 179.095 133.471 181.415 130.961C183.735 128.452 185.367 125.386 186.155 122.06" stroke="#3E156D" stroke-width="5.5" stroke-linecap="round" stroke-linejoin="round"/>
<path d="M213.975 82.9088L185.51 86.7778C177.404 87.8602 168.675 89.3572 163.471 96.4045C158.865 102.6 160.293 110.522 165.152 116.118C170.564 122.336 179.246 123.879 187.099 123.764C197.461 123.531 207.714 121.602 217.452 118.053C220.907 116.832 219.433 111.259 215.932 112.503C206.686 115.9 196.946 117.759 187.099 118.007C179.2 118.007 168.675 116.049 166.557 106.883C164.392 96.8651 177.173 93.733 184.382 92.6966C194.515 91.2457 204.671 89.956 214.804 88.5972C217.982 88.1827 217.268 82.5172 214.044 82.9548L213.975 82.9088Z" fill="#3E156D"/>
<path d="M211.603 116.003C209.776 120.737 209.081 125.832 209.573 130.882C210.065 135.932 211.73 140.798 214.435 145.09C216.439 148.199 221.344 145.321 219.41 142.189C217.089 138.549 215.67 134.409 215.27 130.111C214.869 125.814 215.499 121.483 217.107 117.477C217.298 116.738 217.194 115.954 216.815 115.291C216.436 114.629 215.814 114.14 215.08 113.93C214.348 113.75 213.575 113.858 212.919 114.231C212.264 114.603 211.776 115.213 211.556 115.934L211.603 116.003Z" fill="#3E156D"/>
<path d="M171.14 75.1245L175.078 88.5972C175.168 88.9723 175.332 89.3255 175.561 89.6357C175.79 89.946 176.08 90.2071 176.412 90.4034C176.744 90.5997 177.112 90.7273 177.494 90.7786C177.876 90.8299 178.265 90.8038 178.637 90.7019C179.009 90.6 179.357 90.4244 179.66 90.1855C179.963 89.9466 180.214 89.6492 180.4 89.3111C180.586 88.973 180.702 88.601 180.741 88.2173C180.78 87.8335 180.741 87.4458 180.628 87.0772L176.69 73.6967C176.485 72.9606 175.997 72.3361 175.331 71.9603C174.666 71.5845 173.879 71.4884 173.143 71.693C172.407 71.8976 171.783 72.3863 171.407 73.0514C171.031 73.7165 170.935 74.5037 171.14 75.2397V75.1245Z" fill="#3E156D"/>
<path d="M77.9159 182.514C75.5242 183.421 72.9246 183.632 70.4181 183.123C67.9116 182.613 65.6006 181.404 63.7527 179.636C59.331 175.49 60.3443 169.295 57.5577 164.344C55.2547 160.336 50.6488 157.964 46.2732 160.498C45.2412 161.116 44.3735 161.973 43.7434 162.998C43.1133 164.023 42.7395 165.184 42.6537 166.384C42.5678 167.584 42.7724 168.787 43.2501 169.891C43.7279 170.995 44.4647 171.968 45.3981 172.727C45.716 173.028 46.1232 173.219 46.5586 173.27C46.994 173.321 47.4342 173.229 47.813 173.008C48.1918 172.788 48.489 172.45 48.6598 172.046C48.8306 171.643 48.8659 171.194 48.7604 170.769C48.5124 169.418 47.9506 168.144 47.1203 167.049C46.2899 165.955 45.2142 165.071 43.9797 164.468C42.7452 163.865 41.3864 163.561 40.0128 163.579C38.6391 163.598 37.289 163.938 36.0711 164.574C34.9552 165.307 34.0205 166.285 33.3373 167.432C32.6541 168.579 32.2404 169.867 32.1273 171.198C32.0142 172.528 32.2047 173.867 32.6844 175.113C33.1641 176.36 33.9205 177.481 34.8966 178.392C35.181 178.666 35.5392 178.85 35.9271 178.923C36.315 178.996 36.7158 178.954 37.0802 178.803C37.4447 178.651 37.7569 178.396 37.9785 178.07C38.2002 177.743 38.3216 177.359 38.328 176.964C37.7523 168.627 26.3987 165.748 22.8752 173.901C21.2631 177.655 22.1843 182.261 23.1515 186.061C25.8505 196.272 32.0099 205.229 40.5781 211.403C49.1464 217.578 59.5921 220.586 70.1319 219.915C80.0188 219.171 89.41 215.29 96.9383 208.838C98.8958 207.134 96.0401 204.232 94.0826 205.982C87.4913 211.601 79.3175 215.033 70.691 215.804C62.0645 216.576 53.4114 214.649 45.9278 210.289C38.9227 205.934 33.3247 199.648 29.8071 192.187C27.9843 188.464 26.7935 184.464 26.2835 180.35C26.0006 179.231 25.9759 178.063 26.2113 176.934C26.4467 175.805 26.936 174.744 27.6423 173.832C28.2162 173.308 28.9294 172.961 29.6959 172.833C30.4625 172.705 31.2498 172.801 31.9629 173.11C32.676 173.419 33.2845 173.928 33.7151 174.575C34.1457 175.222 34.3801 175.98 34.3899 176.757L37.8214 175.329C37.3259 174.858 36.9368 174.287 36.6803 173.654C36.4237 173.02 36.3057 172.34 36.334 171.657C36.3624 170.974 36.5365 170.305 36.8447 169.695C37.1528 169.085 37.5879 168.548 38.1207 168.121C40.9994 166.255 44.4999 168.904 45.0296 171.851L48.3919 169.894C46.089 167.775 46.7799 163.399 50.5337 163.653C53.2512 163.86 54.6099 166.969 55.1396 169.203C56.3141 173.256 56.5674 177.287 59.2389 180.718C61.5059 183.644 64.641 185.777 68.1947 186.811C71.7484 187.845 75.5384 187.728 79.0213 186.476C81.3242 185.554 80.38 181.639 77.9619 182.583L77.9159 182.514Z" fill="#3E156D"/>
<path d="M179.283 228.582C189.071 238.831 198.674 249.309 208.462 259.443C210.258 261.308 213.068 258.452 211.317 256.587C201.53 246.361 191.903 235.86 182.139 225.749C180.342 223.861 177.533 226.717 179.283 228.582Z" fill="#3E156D"/>
<path d="M211.041 261.4L224.72 256.449C225.198 256.273 225.592 255.924 225.824 255.471C226.056 255.018 226.109 254.494 225.973 254.004C225.836 253.514 225.52 253.093 225.088 252.824C224.655 252.556 224.138 252.461 223.638 252.557L209.959 257.508C209.453 257.668 209.027 258.014 208.767 258.475C208.506 258.937 208.43 259.48 208.554 259.995C208.704 260.507 209.048 260.94 209.512 261.202C209.977 261.465 210.525 261.536 211.041 261.4Z" fill="#3E156D"/>
<path d="M223.546 252.764C213.241 264.998 201.299 275.755 188.057 284.73C185.939 286.181 188.057 289.658 190.107 288.207C203.636 279.052 215.847 268.088 226.402 255.62C228.06 253.662 225.227 250.783 223.546 252.764Z" fill="#3E156D"/>
<path d="M125.555 226.44L185.087 287.701C186.906 289.566 189.693 286.71 187.942 284.868C168.091 264.433 148.247 244.012 128.411 223.608C126.591 221.742 123.805 224.598 125.555 226.44Z" fill="#3E156D"/>
<path d="M136.204 237.073L107.44 263.972C105.551 265.746 108.407 268.578 110.295 266.805L139.059 239.929C140.948 238.155 138.092 235.323 136.204 237.073Z" fill="#3E156D"/>
<path d="M107.44 266.805C114.556 272.77 120.06 280.416 127.176 286.381C127.564 286.742 128.074 286.942 128.604 286.942C129.134 286.942 129.644 286.742 130.032 286.381C130.403 285.998 130.611 285.486 130.611 284.953C130.611 284.42 130.403 283.907 130.032 283.525C122.916 277.56 117.412 269.914 110.295 263.972C109.913 263.601 109.401 263.393 108.868 263.393C108.334 263.393 107.822 263.601 107.44 263.972C107.07 264.351 106.863 264.859 106.863 265.389C106.863 265.918 107.07 266.426 107.44 266.805Z" fill="#3E156D"/>
<path d="M130.239 286.956L161.306 285.759C163.885 285.759 163.908 281.613 161.306 281.729L130.239 282.926C127.66 283.041 127.637 287.072 130.239 286.956Z" fill="#3E156D"/>
<path d="M163.402 280.531L150.758 272.24C150.297 271.971 149.748 271.897 149.232 272.033C148.716 272.169 148.275 272.504 148.006 272.965C147.738 273.427 147.663 273.976 147.799 274.492C147.935 275.008 148.271 275.449 148.732 275.718L161.352 284.008C161.814 284.278 162.363 284.354 162.881 284.221C163.398 284.087 163.842 283.754 164.116 283.295C164.368 282.829 164.434 282.285 164.302 281.772C164.169 281.26 163.848 280.816 163.402 280.531Z" fill="#3E156D"/>
<path d="M149.998 275.004L162.135 264.571C162.323 264.385 162.472 264.164 162.574 263.92C162.676 263.677 162.729 263.415 162.73 263.151C162.731 262.887 162.68 262.625 162.58 262.381C162.48 262.137 162.333 261.914 162.147 261.727C161.961 261.539 161.739 261.39 161.496 261.288C161.252 261.186 160.991 261.133 160.727 261.132C160.463 261.131 160.201 261.182 159.957 261.282C159.712 261.382 159.49 261.529 159.302 261.715L147.143 272.148C146.766 272.528 146.554 273.041 146.554 273.576C146.554 274.111 146.766 274.624 147.143 275.004C147.528 275.37 148.039 275.574 148.571 275.574C149.102 275.574 149.613 275.37 149.998 275.004Z" fill="#3E156D"/>
<path d="M194.469 237.787L202.828 229.404C203.155 229.016 203.325 228.519 203.303 228.012C203.282 227.504 203.071 227.024 202.712 226.665C202.353 226.306 201.872 226.095 201.365 226.073C200.858 226.051 200.361 226.221 199.973 226.548L191.636 234.908C191.26 235.284 191.049 235.793 191.049 236.324C191.049 236.856 191.26 237.365 191.636 237.741C192.015 238.111 192.523 238.318 193.052 238.318C193.582 238.318 194.09 238.111 194.469 237.741V237.787Z" fill="#3E156D"/>
</g>
<path d="M3 288C8.81958 288 14.7532 287.57 20.5763 287.322C33.5903 286.768 46.6805 287.096 59.708 287.096C76.1775 287.096 92.647 287.096 109.116 287.096C130.252 287.096 151.387 287.096 172.523 287.096C206.015 287.096 239.508 287.096 273 287.096" stroke="#3E156D" stroke-width="4.5" stroke-linecap="round"/>
<defs>
<clipPath id="clip0_509_914">
<rect width="232" height="292" fill="white" transform="translate(22)"/>
</clipPath>
</defs>
</svg>
